<?xml version="1.0" encoding="UTF-8" standalone="no"?>
<svg
   xmlns:dc="http://purl.org/dc/elements/1.1/"
   xmlns:cc="http://creativecommons.org/ns#"
   xmlns:rdf="http://www.w3.org/1999/02/22-rdf-syntax-ns#"
   xmlns:svg="http://www.w3.org/2000/svg"
   xmlns="http://www.w3.org/2000/svg"
   xmlns:sodipodi="http://sodipodi.sourceforge.net/DTD/sodipodi-0.dtd"
   xmlns:inkscape="http://www.inkscape.org/namespaces/inkscape"
   inkscape:export-ydpi="576"
   inkscape:export-xdpi="576"
   inkscape:export-filename="C:\Users\RainBoyz\Desktop\DONE\Flat [Done!]\EX\7 - Temperature.png"
   sodipodi:docname="Template Export.svg"
   inkscape:version="1.0 (4035a4fb49, 2020-05-01)"
   id="svg831"
   version="1.1"
   viewBox="0 0 22.577778 22.577778"
   height="64pt"
   width="64pt">

  <metadata
     id="metadata828">
    <rdf:RDF>
      <cc:Work
         rdf:about="">
        <dc:format>image/svg+xml</dc:format>
        <dc:type
           rdf:resource="http://purl.org/dc/dcmitype/StillImage" />
        <dc:title></dc:title>
      </cc:Work>
    </rdf:RDF>
  </metadata>
  <g
     transform="translate(0,-274.42223)"
     id="layer1"
     inkscape:groupmode="layer"
     inkscape:label="Icon">
    <g
       transform="matrix(1.258055,0,0,1.258055,77.385908,-77.280749)"
       id="g1701">
      <path
         id="path1633"
         d="m -52.667969,280.33203 c -1.028708,0 -1.865234,0.8347 -1.865234,1.86328 v 7.58399 c -1.144145,0.66922 -1.889031,1.86156 -1.892578,3.19726 -2.9e-5,2.07259 1.685389,3.75977 3.757812,3.75977 2.072425,0 3.75787,-1.68718 3.757813,-3.75977 -2.71e-4,-1.33857 -0.74616,-2.53386 -1.892578,-3.20508 v -7.57617 c 0,-1.02872 -0.83657,-1.86328 -1.865235,-1.86328 z"
         style="color:#000000;font-style:normal;font-variant:normal;font-weight:normal;font-stretch:normal;font-size:medium;line-height:normal;font-family:sans-serif;font-variant-ligatures:normal;font-variant-position:normal;font-variant-caps:normal;font-variant-numeric:normal;font-variant-alternates:normal;font-variant-east-asian:normal;font-feature-settings:normal;font-variation-settings:normal;text-indent:0;text-align:start;text-decoration:none;text-decoration-line:none;text-decoration-style:solid;text-decoration-color:#000000;letter-spacing:normal;word-spacing:normal;text-transform:none;writing-mode:lr-tb;direction:ltr;text-orientation:mixed;dominant-baseline:auto;baseline-shift:baseline;text-anchor:start;white-space:normal;shape-padding:0;shape-margin:0;inline-size:0;clip-rule:nonzero;display:inline;overflow:visible;visibility:visible;isolation:auto;mix-blend-mode:normal;color-interpolation:sRGB;color-interpolation-filters:linearRGB;solid-color:#000000;solid-opacity:1;vector-effect:none;fill:#f5f6e8;fill-opacity:1;fill-rule:nonzero;stroke:none;stroke-width:0.529167;stroke-linecap:round;stroke-linejoin:round;stroke-miterlimit:4;stroke-dasharray:none;stroke-dashoffset:0;stroke-opacity:1;color-rendering:auto;image-rendering:auto;shape-rendering:auto;text-rendering:auto;enable-background:accumulate;stop-color:#000000" />
      <path
         sodipodi:nodetypes="sscccccss"
         id="path1647"
         d="m -52.662109,281.6543 c -0.416447,0 -0.794922,0.30619 -0.794922,0.72461 v 8.75781 c -0.771346,0.32946 -1.322119,1.04091 -1.322266,1.89453 7e-6,1.16587 0.951323,2.11718 2.117188,2.11719 1.165864,-10e-6 2.11718,-0.95132 2.117187,-2.11719 -1.47e-4,-0.85372 -0.552727,-1.56513 -1.324219,-1.89453 v -8.75781 c 0,-0.41771 -0.376523,-0.72461 -0.792968,-0.72461 z"
         style="color:#000000;font-style:normal;font-variant:normal;font-weight:normal;font-stretch:normal;font-size:medium;line-height:normal;font-family:sans-serif;font-variant-ligatures:normal;font-variant-position:normal;font-variant-caps:normal;font-variant-numeric:normal;font-variant-alternates:normal;font-variant-east-asian:normal;font-feature-settings:normal;font-variation-settings:normal;text-indent:0;text-align:start;text-decoration:none;text-decoration-line:none;text-decoration-style:solid;text-decoration-color:#000000;letter-spacing:normal;word-spacing:normal;text-transform:none;writing-mode:lr-tb;direction:ltr;text-orientation:mixed;dominant-baseline:auto;baseline-shift:baseline;text-anchor:start;white-space:normal;shape-padding:0;shape-margin:0;inline-size:0;clip-rule:nonzero;display:inline;overflow:visible;visibility:visible;isolation:auto;mix-blend-mode:normal;color-interpolation:sRGB;color-interpolation-filters:linearRGB;solid-color:#000000;solid-opacity:1;vector-effect:none;fill:#dc1d4c;fill-opacity:1;fill-rule:nonzero;stroke:none;stroke-width:0.529167;stroke-linecap:round;stroke-linejoin:round;stroke-miterlimit:4;stroke-dasharray:none;stroke-dashoffset:0;stroke-opacity:1;color-rendering:auto;image-rendering:auto;shape-rendering:auto;text-rendering:auto;enable-background:accumulate;stop-color:#000000" />
      <path
         transform="matrix(0.26458334,0,0,0.26458334,0,280.06666)"
         d="m -189.19727,6 a 1.0000006,1.0000006 0 0 0 -0.99804,0.9980469 1.0000006,1.0000006 0 0 0 0.99804,1.0039062 h 2.56836 A 1.0000006,1.0000006 0 0 0 -185.625,6.9980469 1.0000006,1.0000006 0 0 0 -186.62891,6 Z m 0,4.998047 a 1.0000006,1.0000006 0 0 0 -0.99804,1.003906 1.0000006,1.0000006 0 0 0 0.99804,0.996094 h 4.31836 a 1.0000006,1.0000006 0 0 0 0.9961,-0.996094 1.0000006,1.0000006 0 0 0 -0.9961,-1.003906 z m 0,4.761719 a 1.0000006,1.0000006 0 0 0 -0.99804,0.996093 1.0000006,1.0000006 0 0 0 0.99804,0.996094 h 2.56836 a 1.0000006,1.0000006 0 0 0 1.00391,-0.996094 1.0000006,1.0000006 0 0 0 -1.00391,-0.996093 z m 0,4.236328 A 1.0000006,1.0000006 0 0 0 -190.19531,21 a 1.0000006,1.0000006 0 0 0 0.99804,0.998047 h 4.31836 A 1.0000006,1.0000006 0 0 0 -183.88281,21 a 1.0000006,1.0000006 0 0 0 -0.9961,-1.003906 z m 0,5.005859 a 1.0000006,1.0000006 0 0 0 -0.99804,0.996094 1.0000006,1.0000006 0 0 0 0.99804,1.003906 h 2.56836 a 1.0000006,1.0000006 0 0 0 1.00391,-1.003906 1.0000006,1.0000006 0 0 0 -1.00391,-0.996094 z m 0,4.998047 a 1.0000006,1.0000006 0 0 0 -0.99804,1.003906 A 1.0000006,1.0000006 0 0 0 -189.19727,32 h 4.31836 a 1.0000006,1.0000006 0 0 0 0.9961,-0.996094 A 1.0000006,1.0000006 0 0 0 -184.87891,30 Z"
         style="color:#000000;font-style:normal;font-variant:normal;font-weight:normal;font-stretch:normal;font-size:medium;line-height:normal;font-family:sans-serif;font-variant-ligatures:normal;font-variant-position:normal;font-variant-caps:normal;font-variant-numeric:normal;font-variant-alternates:normal;font-variant-east-asian:normal;font-feature-settings:normal;font-variation-settings:normal;text-indent:0;text-align:start;text-decoration:none;text-decoration-line:none;text-decoration-style:solid;text-decoration-color:#000000;letter-spacing:normal;word-spacing:normal;text-transform:none;writing-mode:lr-tb;direction:ltr;text-orientation:mixed;dominant-baseline:auto;baseline-shift:baseline;text-anchor:start;white-space:normal;shape-padding:0;shape-margin:0;inline-size:0;clip-rule:nonzero;display:inline;overflow:visible;visibility:visible;opacity:1;isolation:auto;mix-blend-mode:normal;color-interpolation:sRGB;color-interpolation-filters:linearRGB;solid-color:#000000;solid-opacity:1;vector-effect:none;fill:#5b6571;fill-opacity:1;fill-rule:nonzero;stroke:none;stroke-width:2;stroke-linecap:round;stroke-linejoin:round;stroke-miterlimit:4;stroke-dasharray:none;stroke-dashoffset:0;stroke-opacity:1;color-rendering:auto;image-rendering:auto;shape-rendering:auto;text-rendering:auto;enable-background:accumulate;stop-color:#000000;stop-opacity:1"
         id="path1659" />
      <path
         d="m -52.668105,280.33228 c -0.649917,0 -1.222478,0.33345 -1.556494,0.83819 0.294828,-0.195 0.647856,-0.30903 1.027327,-0.30903 1.028666,0 1.865519,0.83422 1.865519,1.86294 v 7.57628 c 1.146418,0.67122 1.89212,1.8664 1.892393,3.20497 2.3e-5,0.90187 -0.319318,1.73053 -0.850596,2.37919 0.841518,-0.69017 1.379794,-1.73763 1.379762,-2.90835 -2.72e-4,-1.33857 -0.745974,-2.53376 -1.892392,-3.20498 v -7.57628 c 0,-1.02872 -0.836854,-1.86293 -1.865519,-1.86293 z"
         style="color:#000000;font-style:normal;font-variant:normal;font-weight:normal;font-stretch:normal;font-size:medium;line-height:normal;font-family:sans-serif;font-variant-ligatures:normal;font-variant-position:normal;font-variant-caps:normal;font-variant-numeric:normal;font-variant-alternates:normal;font-variant-east-asian:normal;font-feature-settings:normal;font-variation-settings:normal;text-indent:0;text-align:start;text-decoration:none;text-decoration-line:none;text-decoration-style:solid;text-decoration-color:#000000;letter-spacing:normal;word-spacing:normal;text-transform:none;writing-mode:lr-tb;direction:ltr;text-orientation:mixed;dominant-baseline:auto;baseline-shift:baseline;text-anchor:start;white-space:normal;shape-padding:0;shape-margin:0;inline-size:0;clip-rule:nonzero;display:inline;overflow:visible;visibility:visible;isolation:auto;mix-blend-mode:normal;color-interpolation:sRGB;color-interpolation-filters:linearRGB;solid-color:#000000;solid-opacity:1;vector-effect:none;fill:#e5e5d8;fill-opacity:1;fill-rule:nonzero;stroke:none;stroke-width:0.529167;stroke-linecap:round;stroke-linejoin:round;stroke-miterlimit:4;stroke-dasharray:none;stroke-dashoffset:0;stroke-opacity:1;color-rendering:auto;image-rendering:auto;shape-rendering:auto;text-rendering:auto;enable-background:accumulate;stop-color:#000000"
         id="path1682"
         sodipodi:nodetypes="scsscccccss" />
      <path
         transform="matrix(0.26458334,0,0,0.26458334,0,280.06666)"
         d="m -199.03711,6 v 51.001953 c 4.40642,-3.8e-5 8.00193,-3.595515 8.00195,-8.001953 -5.5e-4,-3.226658 -2.08998,-5.91518 -5.00586,-7.160156 V 8.7382812 C -196.04102,7.1595348 -197.46314,6 -199.03711,6 Z"
         style="fill:#bf1a42;fill-opacity:1;stroke:none;stroke-width:0.999999px;stroke-linecap:butt;stroke-linejoin:miter;stroke-opacity:1"
         id="path1687" />
    </g>
  </g>
</svg>
