<?xml version="1.0" encoding="UTF-8" standalone="no"?>
<svg
   inkscape:export-ydpi="576"
   inkscape:export-xdpi="576"
   inkscape:export-filename="/media/taufikramadhan/Data/Tr Design Studio/Project Design/TR Creative Design/Icon Design/Project Hiring/Icon Icons/008 - Weather And Season/Send/3 - Flat/28 - Cold Wave.png"
   width="64pt"
   height="64pt"
   viewBox="0 0 22.577778 22.577778"
   version="1.1"
   id="svg831"
   inkscape:version="1.1.1 (1:1.1+202109281943+c3084ef5ed)"
   sodipodi:docname="28 - Cold Wave.svg"
   xmlns:inkscape="http://www.inkscape.org/namespaces/inkscape"
   xmlns:sodipodi="http://sodipodi.sourceforge.net/DTD/sodipodi-0.dtd"
   xmlns="http://www.w3.org/2000/svg"
   xmlns:svg="http://www.w3.org/2000/svg"
   xmlns:rdf="http://www.w3.org/1999/02/22-rdf-syntax-ns#"
   xmlns:cc="http://creativecommons.org/ns#"
   xmlns:dc="http://purl.org/dc/elements/1.1/">
  <metadata
     id="metadata828">
    <rdf:RDF>
      <cc:Work
         rdf:about="">
        <dc:format>image/svg+xml</dc:format>
        <dc:type
           rdf:resource="http://purl.org/dc/dcmitype/StillImage" />
      </cc:Work>
    </rdf:RDF>
  </metadata>
  <g
     inkscape:label="Icon"
     inkscape:groupmode="layer"
     id="layer1"
     transform="translate(0,-274.42223)">
    <g
       id="g641002"
       transform="matrix(1.2187074,0,0,1.2187074,-36.203805,163.87152)"
       style="stroke-width:0.820542">
      <path
         style="color:#000000;fill:#d0e2ee;stroke-width:0.820542;stroke-linecap:round;stroke-linejoin:round;-inkscape-stroke:none"
         d="m 42.283203,93.365234 c -0.316076,0 -0.604416,0.129911 -0.8125,0.337891 -0.208234,0.20748 -0.337925,0.496645 -0.337891,0.8125 a 0.2645835,0.2645835 0 0 0 0.265625,0.263672 0.2645835,0.2645835 0 0 0 0.263672,-0.263672 c -1.9e-5,-0.172567 0.06909,-0.325362 0.181641,-0.4375 a 0.26460996,0.26460996 0 0 0 0,-0.002 c 0.11275,-0.112694 0.265998,-0.181641 0.439453,-0.181641 0.346884,0 0.623104,0.276015 0.623047,0.621094 -3.7e-5,0.345478 -0.276075,0.619141 -0.623047,0.619141 h -2.818359 a 0.2645835,0.2645835 0 0 0 -0.263672,0.263671 0.2645835,0.2645835 0 0 0 0.263672,0.265625 h 2.818359 c 0.632039,10e-7 1.152275,-0.516546 1.152344,-1.148437 1.03e-4,-0.631762 -0.520058,-1.150391 -1.152344,-1.150391 z"
         id="path34749-1" />
      <path
         style="color:#000000;fill:#aabfd0;stroke-width:0.820542;stroke-linecap:round;stroke-linejoin:round;-inkscape-stroke:none"
         d="m 40.867187,96.320312 a 0.2645835,0.2645835 0 0 0 -0.263671,0.263672 0.2645835,0.2645835 0 0 0 0.263671,0.265625 h 0.769532 a 0.2645835,0.2645835 0 0 0 0.263672,-0.265625 0.2645835,0.2645835 0 0 0 -0.263672,-0.263672 z"
         id="path458431" />
      <path
         style="color:#000000;fill:#d0e2ee;stroke-width:0.820542;stroke-linecap:round;stroke-linejoin:round;-inkscape-stroke:none"
         d="m 42.658203,96.320312 a 0.2645835,0.2645835 0 0 0 -0.265625,0.263672 0.2645835,0.2645835 0 0 0 0.265625,0.265625 h 1.304688 c 0.346746,0 0.622991,0.273997 0.623046,0.619141 5.7e-5,0.34542 -0.276163,0.621094 -0.623046,0.621094 -0.173455,0 -0.326704,-0.06895 -0.439454,-0.181641 -0.112839,-0.112619 -0.181659,-0.266565 -0.18164,-0.439453 A 0.2645835,0.2645835 0 0 0 43.078125,97.205078 0.2645835,0.2645835 0 0 0 42.8125,97.46875 c -3.4e-5,0.316062 0.129956,0.604973 0.337891,0.8125 0.208083,0.20798 0.496423,0.337891 0.8125,0.337891 0.632285,0 1.152447,-0.518442 1.152343,-1.150391 -1.02e-4,-0.631697 -0.520133,-1.148437 -1.152343,-1.148438 z"
         id="path35058-9" />
      <path
         style="color:#000000;fill:#aabfd0;stroke-width:0.820542;stroke-linecap:round;stroke-linejoin:round;-inkscape-stroke:none"
         d="m 43.886719,95.134766 a 0.2645835,0.2645835 0 0 0 -0.265625,0.263671 0.2645835,0.2645835 0 0 0 0.265625,0.265625 h 0.910156 a 0.2645835,0.2645835 0 0 0 0.263672,-0.265625 0.2645835,0.2645835 0 0 0 -0.263672,-0.263671 z"
         id="path35302-4" />
      <path
         style="color:#000000;fill:#f5f6e8;fill-opacity:1;stroke-width:0.820542;stroke-linecap:round;stroke-linejoin:round;-inkscape-stroke:none"
         d="m 36.582031,91.507812 c -1.028706,0 -1.865234,0.836653 -1.865234,1.865235 v 8.113283 c -1.142775,0.66953 -1.889033,1.86247 -1.892578,3.19726 -2.9e-5,2.07259 1.685392,3.75782 3.757812,3.75782 2.072422,0 3.75787,-1.68523 3.757813,-3.75782 -2.71e-4,-1.33862 -0.746094,-2.53583 -1.892578,-3.20703 v -8.103513 c 0,-1.028724 -0.836572,-1.865235 -1.865235,-1.865235 z"
         id="path599674" />
      <path
         style="color:#000000;fill:#2bb3cd;stroke-width:0.217101;stroke-linecap:round;stroke-linejoin:round;-inkscape-stroke:none"
         d="m 35.858795,99.967545 v 1.925465 c 0,0.11145 -0.0844,0.19655 -0.195855,0.19688 l -0.274402,5.3e-4 c -0.15158,5.3e-4 -0.275617,0.029 -0.415478,0.11938 -0.83702,0.54077 -1.37685,1.45393 -1.380279,2.47271 -1e-6,3.3e-4 -1e-6,6.7e-4 0,0.001 -2.1e-5,1.65599 1.333985,2.99103 2.989483,2.99103 1.655561,0 2.991075,-1.33534 2.991032,-2.99103 -2.06e-4,-1.02096 -0.539279,-1.93787 -1.378212,-2.48099 -0.140472,-0.0909 -0.264586,-0.11931 -0.417028,-0.11885 l -0.277503,5.3e-4 c -0.110411,3.1e-4 -0.194302,-0.0834 -0.194302,-0.19383 v -1.922885 c 0,-0.39624 -0.327054,-0.723893 -0.723503,-0.723958 -0.396449,-6.5e-5 -0.723953,0.32742 -0.723953,0.724018 z"
         id="path599680"
         sodipodi:nodetypes="sscccscsccccsscs" />
      <path
         id="path632249"
         style="color:#000000;fill:#2276bc;fill-opacity:1;stroke-width:0.217101;stroke-linecap:round;stroke-linejoin:round;-inkscape-stroke:none"
         d="m 36.582781,99.243557 c -0.336728,-5.5e-5 -0.62346,0.236165 -0.702283,0.550355 0.05555,-0.01389 0.113578,-0.02119 0.173116,-0.02119 0.396449,7.1e-5 0.72347,0.327748 0.72347,0.723988 v 1.92288 c 0,0.11043 0.08389,0.1941 0.194304,0.19379 l 0.277501,-5.3e-4 c 0.152443,-5.3e-4 0.276559,0.028 0.417031,0.11885 0.838933,0.54313 1.378003,1.46003 1.37821,2.48099 1.8e-5,0.69263 -0.233752,1.32884 -0.626835,1.83503 0.703865,-0.54654 1.156025,-1.40113 1.156001,-2.36419 -2.06e-4,-1.02097 -0.539276,-1.93787 -1.378209,-2.48099 -0.140473,-0.0909 -0.264589,-0.11932 -0.417031,-0.11886 l -0.2775,5.3e-4 c -0.110414,3.1e-4 -0.194305,-0.0834 -0.194305,-0.19378 v -1.922882 c 0,-0.39624 -0.327021,-0.723922 -0.72347,-0.723988 z"
         sodipodi:nodetypes="sccsscccccccccsss" />
      <path
         style="color:#000000;fill:#d0e2ee;stroke-width:0.820542;stroke-linecap:round;stroke-linejoin:round;-inkscape-stroke:none"
         d="m 42.283203,98.835937 c -0.316076,0 -0.604416,0.127958 -0.8125,0.335938 -0.208234,0.20748 -0.337925,0.496645 -0.337891,0.8125 a 0.2645835,0.2645835 0 0 0 0.265625,0.265625 0.2645835,0.2645835 0 0 0 0.263672,-0.265625 c -1.9e-5,-0.172567 0.06909,-0.325362 0.181641,-0.4375 0.11275,-0.112693 0.265998,-0.181641 0.439453,-0.181641 0.346884,0 0.623104,0.274062 0.623047,0.619141 -3.7e-5,0.345485 -0.276074,0.619145 -0.623047,0.619145 h -2.818359 a 0.2645835,0.2645835 0 0 0 -0.263672,0.26562 0.2645835,0.2645835 0 0 0 0.263672,0.26367 h 2.818359 c 0.632038,0 1.152275,-0.51654 1.152344,-1.148435 1.03e-4,-0.631762 -0.520058,-1.148438 -1.152344,-1.148438 z"
         id="path94653" />
      <path
         style="color:#000000;fill:#aabfd0;stroke-width:0.820542;stroke-linecap:round;stroke-linejoin:round;-inkscape-stroke:none"
         d="m 40.867187,101.78906 a 0.2645835,0.2645835 0 0 0 -0.263671,0.26563 0.2645835,0.2645835 0 0 0 0.263671,0.26367 h 0.769532 a 0.2645835,0.2645835 0 0 0 0.263672,-0.26367 0.2645835,0.2645835 0 0 0 -0.263672,-0.26563 z"
         id="path452969" />
      <path
         style="color:#000000;fill:#d0e2ee;stroke-width:0.820542;stroke-linecap:round;stroke-linejoin:round;-inkscape-stroke:none"
         d="m 42.658203,101.78906 a 0.2645835,0.2645835 0 0 0 -0.265625,0.26563 0.2645835,0.2645835 0 0 0 0.265625,0.26367 h 1.304688 c 0.346747,0 0.622991,0.27595 0.623046,0.62109 5.7e-5,0.34543 -0.276162,0.61914 -0.623046,0.61914 -0.173459,0 -0.326706,-0.0689 -0.439454,-0.18164 -0.112836,-0.11261 -0.181659,-0.2646 -0.18164,-0.4375 a 0.2645835,0.2645835 0 0 0 -0.263672,-0.26562 0.2645835,0.2645835 0 0 0 -0.265625,0.26562 c -3.4e-5,0.31607 0.129953,0.60498 0.337891,0.8125 0.208086,0.20799 0.496426,0.33594 0.8125,0.33594 0.632285,0 1.152447,-0.51648 1.152343,-1.14844 -1.02e-4,-0.63169 -0.520133,-1.15039 -1.152343,-1.15039 z"
         id="path94655" />
      <path
         style="color:#000000;fill:#aabfd0;stroke-width:0.820542;stroke-linecap:round;stroke-linejoin:round;-inkscape-stroke:none"
         d="m 43.886719,100.60352 a 0.2645835,0.2645835 0 0 0 -0.265625,0.26562 0.2645835,0.2645835 0 0 0 0.265625,0.26367 h 0.910156 a 0.2645835,0.2645835 0 0 0 0.263672,-0.26367 0.2645835,0.2645835 0 0 0 -0.263672,-0.26562 z"
         id="path94657" />
      <path
         style="color:#000000;fill:#aabfd0;stroke-width:0.820542;stroke-linecap:round;stroke-linejoin:round;-inkscape-stroke:none"
         d="m 39.921875,98.089844 a 0.2645835,0.2645835 0 0 0 -0.263672,0.263672 0.2645835,0.2645835 0 0 0 0.263672,0.265625 h 1.373047 a 0.2645835,0.2645835 0 0 0 0.265625,-0.265625 0.2645835,0.2645835 0 0 0 -0.265625,-0.263672 z"
         id="path94692" />
      <path
         id="rect72485-8-8"
         style="color:#000000;fill:#f5f6e8;stroke-width:3.10126;stroke-linecap:round;stroke-linejoin:round;-inkscape-stroke:none"
         d="m 136.52734,387.57227 a 1.0000006,1.0000006 0 0 0 -0.70703,0.29492 1.0000006,1.0000006 0 0 0 0,1.41015 l 1.44531,1.44532 v 3.46093 c -1.00023,-0.57772 -1.99997,-1.15506 -3,-1.73242 l -0.52734,-1.9707 a 1.0000006,1.0000006 0 0 0 -1.22656,-0.70899 1.0000006,1.0000006 0 0 0 -0.70899,1.22461 l 0.37696,1.40235 -1.40235,0.37695 A 1.0000006,1.0000006 0 0 0 130.06836,394 a 1.0000006,1.0000006 0 0 0 1.22656,0.70898 l 1.9668,-0.52734 c 1.00098,0.57785 2.00158,1.15505 3.00195,1.73242 -0.9974,0.57668 -1.99416,1.15418 -2.99219,1.73047 l -1.97656,-0.5293 a 1.0000006,1.0000006 0 0 0 -1.22656,0.70899 1.0000006,1.0000006 0 0 0 0.70898,1.22656 l 1.40235,0.375 -0.37696,1.4043 a 1.0000006,1.0000006 0 0 0 0.70899,1.22461 1.0000006,1.0000006 0 0 0 1.22656,-0.70899 l 0.52734,-1.9707 c 0.9998,-0.57705 2.00002,-1.15393 3,-1.73047 v 3.45899 l -1.44531,1.44531 a 1.0000006,1.0000006 0 0 0 0,1.41797 1.0000006,1.0000006 0 0 0 1.41602,0 l 1.02734,-1.03321 1.02539,1.03321 a 1.0000006,1.0000006 0 0 0 1.41797,0 1.0000006,1.0000006 0 0 0 0,-1.41797 l -1.43945,-1.4375 v -3.46289 c 0.99712,0.57549 1.99438,1.15056 2.99219,1.72656 l 0.52734,1.9707 a 1.0000006,1.0000006 0 0 0 1.22656,0.70899 1.0000006,1.0000006 0 0 0 0.70899,-1.22461 l -0.37696,-1.4043 1.40235,-0.375 a 1.0000006,1.0000006 0 0 0 0.70898,-1.22656 1.0000006,1.0000006 0 0 0 -1.22656,-0.70899 l -1.97266,0.5293 c -0.99745,-0.57586 -1.99449,-1.15226 -2.99219,-1.72851 1.0012,-0.57725 2.00103,-1.1547 3.00196,-1.73243 l 1.96289,0.52539 A 1.0000006,1.0000006 0 0 0 146.45703,394 a 1.0000006,1.0000006 0 0 0 -0.70898,-1.22461 l -1.40235,-0.37695 0.37696,-1.40235 a 1.0000006,1.0000006 0 0 0 -0.70899,-1.22461 1.0000006,1.0000006 0 0 0 -1.22656,0.70899 l -0.52734,1.9707 c -0.9978,0.57617 -1.99505,1.15199 -2.99219,1.72852 v -3.46485 l 1.43945,-1.4375 a 1.0000006,1.0000006 0 0 0 0,-1.41015 1.0000006,1.0000006 0 0 0 -1.41797,0 l -1.02539,1.02539 -1.02734,-1.02539 a 1.0000006,1.0000006 0 0 0 -0.70899,-0.29492 z"
         transform="scale(0.26458334)" />
      <path
         id="path601351"
         style="color:#000000;fill:#dadcc6;fill-opacity:1;stroke-width:0.820542;stroke-linecap:round;stroke-linejoin:round;-inkscape-stroke:none"
         d="m 36.582263,91.50752 c -0.08983,0 -0.178115,0.0068 -0.264583,0.01913 0.903687,0.128894 1.600419,0.907542 1.600419,1.8464 v 8.10338 c 1.146485,0.6712 1.89212,1.86842 1.89239,3.20704 5.6e-5,1.98359 -1.543992,3.61083 -3.493325,3.74706 0.08763,0.006 0.175934,0.0108 0.265099,0.0108 2.072423,0 3.757451,-1.68532 3.757393,-3.75791 -2.65e-4,-1.33862 -0.745905,-2.53584 -1.89239,-3.20704 v -8.103383 c 0,-1.028724 -0.83634,-1.865519 -1.865003,-1.865519 z" />
      <path
         id="path94147"
         style="color:#000000;fill:#7d8e9e;fill-opacity:1;stroke-width:3.10126;stroke-linecap:round;stroke-linejoin:round;-inkscape-stroke:none"
         d="m 139.99805,359.85156 a 1.0000006,1.0000006 0 0 0 -0.9961,0.99805 1.0000006,1.0000006 0 0 0 0.9961,1.00391 h 5.31445 v -2.00196 z m 1.74804,4.2461 a 1.0000006,1.0000006 0 0 0 -1.0039,0.99609 1.0000006,1.0000006 0 0 0 1.0039,1.00391 h 3.56641 v -2 z m -1.74804,4.24414 a 1.0000006,1.0000006 0 0 0 -0.9961,0.99609 1.0000006,1.0000006 0 0 0 0.9961,1.00391 h 5.31445 v -2 z m 1.74804,4.24414 a 1.0000006,1.0000006 0 0 0 -1.0039,0.99609 1.0000006,1.0000006 0 0 0 1.0039,1.00391 h 3.56641 v -2 z m -1.74804,4.24414 a 1.0000006,1.0000006 0 0 0 -0.9961,0.99804 1.0000006,1.0000006 0 0 0 0.9961,1.00391 h 5.31445 v -2.00195 z"
         transform="scale(0.26458334)" />
      <path
         id="path623962"
         style="color:#000000;fill:#616c80;fill-opacity:1;stroke-width:3.10126;stroke-linecap:round;stroke-linejoin:round;-inkscape-stroke:none"
         d="m 143.3125,359.85156 v 2.00196 h 2 v -2.00196 z m 0,4.2461 v 2 h 2 v -2 z m 0,4.24414 v 2 h 2 v -2 z m 0,4.24414 v 2 h 2 v -2 z m 0,4.24414 v 2.00195 h 2 v -2.00195 z"
         transform="scale(0.26458334)" />
    </g>
  </g>
</svg>
